{
  "accessors": [
    {
      "bufferView": 2,
      "componentType": 5126,
      "count": 17157,
      "max": [
        0.9467183947563171,
        9.754037857055664,
        1.64076566696167
      ],
      "min": [
        -0.8872867226600647,
        6.91773796081543,
        -0.5960570573806763
      ],
      "type": "VEC3"
    },
    {
      "bufferView": 2,
      "byteOffset": 205884,
      "componentType": 5126,
      "count": 17157,
      "max": [
        1.0,
        1.0,
        1.0
      ],
      "min": [
        -1.0,
        -1.0,
        -1.0
      ],
      "type": "VEC3"
    },
    {
      "bufferView": 1,
      "componentType": 5126,
      "count": 17157,
      "max": [
        1.0,
        1.0
      ],
      "min": [
        0.0,
        0.0
      ],
      "type": "VEC2"
    },
    {
      "bufferView": 0,
      "componentType": 5125,
      "count": 80604,
      "type": "SCALAR"
    }
  ],
  "asset": {
    "extras": {
      "author": "shwtyyy (https://sketchfab.com/shwtyyy)",
      "license": "CC-BY-4.0 (http://creativecommons.org/licenses/by/4.0/)",
      "source": "https://sketchfab.com/3d-models/filatov3-1f52822950094f5b8383de9b3dc491f8",
      "title": "Filatov3"
    },
    "generator": "Sketchfab-14.40.0",
    "version": "2.0"
  },
  "bufferViews": [
    {
      "buffer": 0,
      "byteLength": 322416,
      "name": "floatBufferViews",
      "target": 34963
    },
    {
      "buffer": 0,
      "byteLength": 137256,
      "byteOffset": 322416,
      "byteStride": 8,
      "name": "floatBufferViews",
      "target": 34962
    },
    {
      "buffer": 0,
      "byteLength": 411768,
      "byteOffset": 459672,
      "byteStride": 12,
      "name": "floatBufferViews",
      "target": 34962
    }
  ],
  "buffers": [
    {
      "byteLength": 871440,
      "uri": "scene.bin"
    }
  ],
  "materials": [
    {
      "doubleSided": true,
      "name": "RS_Material",
      "pbrMetallicRoughness": {
        "baseColorFactor": [
          0.8,
          0.8,
          0.8,
          1.0
        ],
        "metallicFactor": 0.0,
        "roughnessFactor": 0.6
      }
    }
  ],
  "meshes": [
    {
      "name": "Cube_RS Material_0",
      "primitives": [
        {
          "attributes": {
            "NORMAL": 1,
            "POSITION": 0,
            "TEXCOORD_0": 2
          },
          "indices": 3,
          "material": 0,
          "mode": 4
        }
      ]
    }
  ],
  "nodes": [
    {
      "children": [
        1
      ],
      "matrix": [
        1.0,
        0.0,
        0.0,
        0.0,
        0.0,
        2.220446049250313e-16,
        -1.0,
        0.0,
        0.0,
        1.0,
        2.220446049250313e-16,
        0.0,
        0.0,
        0.0,
        0.0,
        1.0
      ],
      "name": "Sketchfab_model"
    },
    {
      "children": [
        2
      ],
      "matrix": [
        0.009999999776482582,
        0.0,
        0.0,
        0.0,
        0.0,
        0.0,
        0.009999999776482582,
        0.0,
        0.0,
        -0.009999999776482582,
        0.0,
        0.0,
        0.0,
        0.0,
        0.0,
        1.0
      ],
      "name": "62596e358747481c869f42d71fa827a8.fbx"
    },
    {
      "children": [
        3,
        5,
        7
      ],
      "name": "RootNode"
    },
    {
      "children": [
        4
      ],
      "matrix": [
        1.0,
        0.0,
        0.0,
        0.0,
        0.0,
        1.0,
        0.0,
        0.0,
        0.0,
        0.0,
        1.0,
        0.0,
        0.007823917083442211,
        8.229951858520508,
        -0.18837565183639526,
        1.0
      ],
      "name": "Cube"
    },
    {
      "mesh": 0,
      "name": "Cube_RS Material_0"
    },
    {
      "children": [
        6
      ],
      "matrix": [
        7.771561172376096e-16,
        0.0,
        1.0,
        0.0,
        -1.2246467991473532e-16,
        1.0,
        9.860761315262648e-32,
        0.0,
        -1.0,
        -1.2246467991473532e-16,
        7.771561172376096e-16,
        0.0,
        1.5160772731152784e-16,
        16.5,
        -3.955298900604248,
        1.0
      ],
      "name": "RS_Camera_1"
    },
    {
      "name": "Object_6"
    },
    {
      "children": [
        8
      ],
      "matrix": [
        7.771561172376096e-16,
        0.0,
        -1.0,
        0.0,
        0.0,
        1.0,
        0.0,
        0.0,
        1.0,
        0.0,
        7.771561172376096e-16,
        0.0,
        0.0,
        16.5,
        5.0,
        1.0
      ],
      "name": "RS_Camera"
    },
    {
      "name": "Object_8"
    }
  ],
  "scene": 0,
  "scenes": [
    {
      "name": "Sketchfab_Scene",
      "nodes": [
        0
      ]
    }
  ]
}
