<svg width="31" height="33" viewBox="0 0 31 33" fill="none" xmlns="http://www.w3.org/2000/svg">
<path d="M19.3956 0L15.2852 5.63106H20.823L27.94 0H19.3956Z" fill="#E95200"/>
<path d="M10.3395 12.2169C8.17031 10.1035 9.34383 8.28712 10.4513 6.4314C8.91492 8.01189 7.37859 9.45757 4.96477 8.01048C5.70305 8.85304 5.63977 9.76861 5.37961 10.7017C5.26866 11.1014 5.12908 11.4925 4.96195 11.8722C3.83766 14.416 2.1825 16.6179 0.473906 18.7839C0.317109 18.9826 0.1575 19.1806 0 19.3786L0.176484 19.5324C0.331875 19.3365 0.485859 19.1392 0.644063 18.9461C2.26055 16.9591 3.89953 14.9868 5.92102 13.3923C7.13812 12.4325 8.37703 11.3737 10.3395 12.2162" fill="#E95200"/>
<path d="M30.2675 14.0706H30.5684V8.83276H10.9302C10.8163 10.4926 11.4055 12.2093 13.2856 14.0397C10.4309 12.8145 8.36375 13.6557 6.51172 14.9385V32.755H30.5684V27.5339H13.3602V23.1632H28.2116V18.025H13.3609V14.0706H30.2675Z" fill="#E95200"/>
</svg>
