<svg width="590" height="590" viewBox="0 0 590 590" fill="none" xmlns="http://www.w3.org/2000/svg">
<path d="M71.4445 53.639C48.878 52.981 25.1599 52.9132 0 53.639V0H53.639C60.5188 17.5521 66.4623 35.457 71.4445 53.639Z" fill="#E95200"/>
<path d="M152.139 107.278C130.579 105.139 107.364 103.833 82.127 103.717C79.5234 86.8374 75.9696 70.1182 71.4824 53.639C94.0393 54.2971 115.416 55.5744 135.795 57.2001C142.617 73.4163 148.097 90.1652 152.178 107.278" fill="#E95200"/>
<path d="M194.147 63.132C175.538 60.887 156.146 58.8452 135.756 57.2001C127.494 37.545 117.982 18.4392 107.277 0L160.907 0C173.336 20.3057 184.439 41.3937 194.147 63.132Z" fill="#E95200"/>
<path d="M264.402 127.212C248.068 123.177 230.775 119.258 212.147 115.823C207.749 97.7474 201.711 80.1109 194.109 63.1321C212.708 65.3771 230.524 67.8157 247.739 70.2543C255.867 91.2725 261.219 110.075 264.364 127.212" fill="#E95200"/>
<path d="M297.855 77.4151C281.627 75.1701 265.002 72.7315 247.777 70.2929C239.658 49.236 228.762 26.0018 214.547 0H268.186C281.24 28.7597 290.936 54.3551 297.855 77.4151Z" fill="#E95200"/>
<path d="M353.865 149.992C339.911 146.905 325.706 143.218 310.919 139.347C308.936 120.874 304.784 100.427 297.855 77.4152C314.084 79.6602 329.925 81.702 345.563 83.3471C350.265 105.278 353.044 127.578 353.865 149.992Z" fill="#E95200"/>
<path d="M392.069 86.8694C376.586 86.2114 361.199 84.9341 345.562 83.3083C340.413 58.5065 332.701 30.966 321.814 0H375.463C382.848 28.5725 388.398 57.5883 392.078 86.8694" fill="#E95200"/>
<path d="M437.637 158.546C423.542 159.214 409.416 158.738 395.397 157.124C396.113 133.655 395 110.166 392.068 86.8694C407.551 87.5274 422.947 87.5952 438.585 86.8694C439.801 110.758 439.478 134.699 437.617 158.546" fill="#E95200"/>
<path d="M486.292 82.1278C470.486 84.5598 454.56 86.1426 438.585 86.8694C437.084 57.7553 433.914 28.7512 429.092 0H482.731C485.344 29.6306 486.408 56.8808 486.292 82.1278Z" fill="#E95200"/>
<path d="M532.81 135.757C516.594 142.578 499.845 148.057 482.732 152.14C484.871 130.58 486.168 107.365 486.294 82.1277C503.172 79.5175 519.891 75.9638 536.371 71.4832C535.704 94.04 534.436 115.416 532.81 135.796" fill="#E95200"/>
<path d="M590 53.639C572.452 60.5187 554.55 66.4622 536.371 71.4445C537.068 48.878 537.068 25.1599 536.371 0H590V53.639Z" fill="#E95200"/>
<path d="M86.8694 151.414C57.7557 152.92 28.7519 156.09 0 160.907L0 107.278C29.6306 104.665 56.8904 103.591 82.1278 103.717C84.5598 119.52 86.1426 135.442 86.8694 151.414Z" fill="#E95200"/>
<path d="M157.123 194.602C133.654 193.887 110.165 195 86.8691 197.931C87.5272 182.448 87.5949 167.052 86.8691 151.414C110.757 150.198 134.699 150.521 158.546 152.382C159.214 166.477 158.738 180.603 157.123 194.622" fill="#E95200"/>
<path d="M217.885 160.907C198.308 156.798 178.488 153.943 158.547 152.363C157.783 137.171 155.638 122.081 152.141 107.278C173.701 109.407 193.596 112.378 212.186 115.823C215.75 130.593 217.662 145.714 217.885 160.907Z" fill="#E95200"/>
<path d="M261.073 214.546C245.749 208.999 230.045 204.565 214.082 201.279C216.732 187.998 218.006 174.479 217.885 160.936C234.712 164.499 251.346 168.92 267.721 174.184C266.998 187.836 264.768 201.365 261.073 214.527" fill="#E95200"/>
<path d="M310.919 189.396C297.304 184.335 283.069 179.11 267.722 174.203C268.452 158.464 267.338 142.693 264.402 127.212C280.737 131.248 296.123 135.409 310.919 139.318C312.801 155.958 312.801 172.757 310.919 189.396Z" fill="#E95200"/>
<path d="M338.44 247.777C326.286 242.609 314.131 236.89 301.416 231.162C306.036 217.611 309.218 203.612 310.909 189.396C324.524 194.506 337.491 199.344 350.304 203.641C347.698 218.682 343.727 233.456 338.44 247.777Z" fill="#E95200"/>
<path d="M388.749 214.082C375.72 211.44 362.878 207.952 350.303 203.64C353.297 185.924 354.49 167.949 353.864 149.992C367.571 153.107 381.435 155.484 395.397 157.114C394.782 176.253 392.558 195.306 388.749 214.072" fill="#E95200"/>
<path d="M415.796 267.721C402.148 266.996 388.622 264.767 375.463 261.073C381.029 245.752 385.473 230.047 388.759 214.082C402.04 216.731 415.559 218.006 429.102 217.885C425.528 234.714 421.09 251.348 415.806 267.721" fill="#E95200"/>
<path d="M474.169 212.185C459.395 215.749 444.27 217.661 429.074 217.885C433.188 198.308 436.042 178.488 437.619 158.546C452.813 157.781 467.907 155.637 482.713 152.14C480.575 173.7 477.604 193.596 474.169 212.185Z" fill="#E95200"/>
<path d="M519.745 247.777C498.727 255.905 479.925 261.257 462.787 264.402C466.822 248.067 470.742 230.775 474.186 212.146C492.257 207.743 509.89 201.706 526.868 194.109C524.632 212.708 522.184 230.523 519.745 247.738" fill="#E95200"/>
<path d="M589.999 160.907C566.9 174.832 546.018 185.758 526.867 194.147C529.112 175.539 531.154 156.146 532.809 135.757C552.46 127.493 571.562 117.98 589.999 107.278V160.907Z" fill="#E95200"/>
<path d="M83.3083 244.448C58.5065 249.586 30.966 257.299 0 268.185V214.546C28.5725 207.161 57.5883 201.611 86.8694 197.931C86.2114 213.414 84.9341 228.81 83.3083 244.448Z" fill="#E95200"/>
<path d="M139.348 279.091C120.875 281.027 100.428 285.217 77.416 292.145C79.6611 275.917 81.7029 260.076 83.3479 244.448C105.277 239.731 127.577 236.943 149.993 236.116C146.906 250.08 143.219 264.276 139.348 279.072" fill="#E95200"/>
<path d="M203.641 239.697C185.923 236.705 167.95 235.506 149.992 236.116C153.107 222.409 155.484 208.545 157.114 194.583C176.257 195.223 195.313 197.463 214.082 201.279C211.442 214.308 207.954 227.151 203.641 239.726" fill="#E95200"/>
<path d="M231.162 288.584C217.61 283.968 203.612 280.787 189.396 279.091C194.457 265.485 199.364 252.509 203.641 239.697C218.685 242.31 233.459 246.295 247.777 251.599C242.61 263.753 236.891 275.907 231.162 288.613" fill="#E95200"/>
<path d="M285.991 268.185C273.554 261.988 260.798 256.452 247.777 251.599C253.032 239.569 257.474 227.2 261.073 214.575C275.444 219.743 288.711 225.471 301.416 231.191C297.044 243.839 291.893 256.204 285.991 268.214" fill="#E95200"/>
<path d="M304.019 321.824C291.875 315.883 280.127 309.757 268.215 304.019C274.147 291.874 280.282 280.127 286.02 268.214C298.155 274.146 309.903 280.281 321.825 286.02C315.883 298.155 309.748 309.902 304.019 321.824Z" fill="#E95200"/>
<path d="M358.838 301.416C346.193 297.044 333.832 291.892 321.824 285.991C328.027 273.552 333.573 260.797 338.439 247.777C350.469 253.033 362.838 257.475 375.463 261.073C370.296 275.443 364.577 288.71 358.848 301.416" fill="#E95200"/>
<path d="M386.359 350.303C371.318 347.695 356.545 343.724 342.223 338.44C347.39 326.285 353.119 314.131 358.838 301.416C372.395 306.036 386.4 309.221 400.623 310.918C395.562 324.524 390.655 337.491 386.378 350.303" fill="#E95200"/>
<path d="M450.681 310.909C434.042 312.796 417.243 312.796 400.604 310.909C405.674 297.303 410.89 283.068 415.796 267.721C431.536 268.451 447.307 267.337 462.787 264.402C458.752 280.736 454.601 296.123 450.681 310.909Z" fill="#E95200"/>
<path d="M506.691 345.562C484.745 350.268 462.429 353.046 439.998 353.865C443.085 339.901 446.772 325.705 450.643 310.909C469.116 308.974 489.563 304.783 512.575 297.855C510.339 314.083 508.288 329.924 506.643 345.562" fill="#E95200"/>
<path d="M589.999 268.185C561.239 281.24 535.644 290.936 512.584 297.855C514.829 281.627 517.268 265.002 519.706 247.777C540.724 239.658 563.959 228.762 589.96 214.546L589.999 268.185Z" fill="#E95200"/>
<path d="M70.2542 342.223C49.236 350.303 26.0018 361.238 0 375.463V321.824C28.7597 308.76 54.3551 299.074 77.4151 292.145C75.1701 308.373 72.7315 325.047 70.2929 342.223" fill="#E95200"/>
<path d="M115.823 377.815C97.7489 382.22 80.1126 388.261 63.1328 395.862C65.3779 377.254 67.8164 359.438 70.255 342.223C91.2732 334.095 110.075 328.743 127.213 325.608C123.178 341.943 119.259 359.226 115.823 377.815Z" fill="#E95200"/>
<path d="M174.184 322.24C158.444 321.509 142.673 322.626 127.193 325.569C131.229 309.225 135.39 293.839 139.299 279.052C155.938 277.165 172.738 277.165 189.377 279.052C184.316 292.658 179.091 306.893 174.184 322.24Z" fill="#E95200"/>
<path d="M201.279 375.918C187.997 373.268 174.478 371.994 160.936 372.115C164.497 355.275 168.918 338.628 174.183 322.24C187.835 322.964 201.364 325.193 214.526 328.888C208.985 344.226 204.557 359.943 201.279 375.918Z" fill="#E95200"/>
<path d="M251.6 342.223C239.566 336.977 227.198 332.535 214.576 328.927C219.744 314.557 225.472 301.29 231.191 288.584C243.84 292.959 256.205 298.114 268.215 304.019C262.007 316.452 256.46 329.204 251.6 342.223Z" fill="#E95200"/>
<path d="M279.092 400.623C265.486 395.562 252.509 390.656 239.697 386.379C242.317 371.33 246.301 356.55 251.6 342.223C263.764 347.391 275.918 353.119 288.624 358.839C283.993 372.395 280.799 386.4 279.092 400.623Z" fill="#E95200"/>
<path d="M328.927 375.463C314.557 370.296 301.29 364.577 288.584 358.848C292.959 346.203 298.114 333.841 304.019 321.834C316.453 328.039 329.206 333.585 342.223 338.449C336.975 350.479 332.533 362.844 328.927 375.463Z" fill="#E95200"/>
<path d="M372.115 429.093C355.273 425.52 338.626 421.082 322.24 415.797C322.977 402.147 325.22 388.621 328.927 375.463C344.248 381.028 359.953 385.472 375.918 388.759C373.268 402.041 371.994 415.56 372.115 429.102" fill="#E95200"/>
<path d="M432.876 395.398C413.737 394.782 394.684 392.559 375.918 388.75C378.569 375.723 382.056 362.881 386.359 350.303C404.073 353.297 422.044 354.49 439.998 353.865C436.884 367.572 434.506 381.436 432.876 395.398Z" fill="#E95200"/>
<path d="M503.13 438.586C479.242 439.802 455.3 439.479 431.454 437.618C430.791 423.523 431.266 409.397 432.876 395.378C456.345 396.094 479.834 394.981 503.13 392.05C502.472 407.533 502.405 422.928 503.13 438.566" fill="#E95200"/>
<path d="M590 375.463C561.428 382.849 532.412 388.398 503.131 392.079C503.789 376.596 505.066 361.209 506.692 345.571C531.494 340.423 559.063 332.711 590 321.834V375.463Z" fill="#E95200"/>
<path d="M57.2001 454.243C37.5431 462.505 18.4371 472.021 0 482.732L0 429.093C23.0987 415.139 43.9911 404.242 63.132 395.862C60.887 414.461 58.8452 433.854 57.2001 454.243Z" fill="#E95200"/>
<path d="M103.717 507.882C86.837 510.485 70.1178 514.039 53.6387 518.526C54.2967 495.96 55.5741 474.584 57.1998 454.204C73.4159 447.382 90.1648 441.903 107.278 437.821C105.139 459.381 103.833 482.606 103.717 507.843" fill="#E95200"/>
<path d="M152.362 431.454C137.171 432.218 122.08 434.362 107.277 437.86C109.406 416.3 112.377 396.404 115.822 377.815C130.594 374.26 145.714 372.348 160.907 372.115C156.798 391.693 153.944 411.512 152.362 431.454Z" fill="#E95200"/>
<path d="M197.931 503.131C182.448 502.473 167.052 502.405 151.414 503.131C150.198 479.242 150.521 455.301 152.382 431.454C166.477 430.791 180.603 431.267 194.621 432.876C193.906 456.345 195.019 479.834 197.95 503.131" fill="#E95200"/>
<path d="M236.115 439.999C222.407 436.889 208.543 434.511 194.582 432.876C195.223 413.737 197.463 394.684 201.278 375.918C214.305 378.568 227.147 382.055 239.725 386.36C236.724 404.073 235.515 422.043 236.115 439.999Z" fill="#E95200"/>
<path d="M292.144 512.624C275.916 510.388 260.085 508.337 244.447 506.692C239.727 484.747 236.939 462.43 236.115 439.999C250.079 443.085 264.275 446.772 279.071 450.643C281.006 469.116 285.206 489.564 292.125 512.575" fill="#E95200"/>
<path d="M325.608 462.788C309.263 458.752 293.877 454.601 279.091 450.682C277.204 434.043 277.204 417.243 279.091 400.604C292.697 405.665 306.931 410.891 322.279 415.797C321.547 431.537 322.665 447.308 325.608 462.788Z" fill="#E95200"/>
<path d="M395.862 526.868C377.253 524.633 359.438 522.184 342.223 519.746C334.094 498.728 328.743 479.925 325.607 462.788C341.942 466.823 359.225 470.742 377.814 474.187C382.221 492.258 388.262 509.891 395.862 526.868Z" fill="#E95200"/>
<path d="M437.86 482.732C416.3 480.593 396.404 477.622 377.815 474.187C374.26 459.411 372.349 444.288 372.115 429.093C391.692 433.206 411.512 436.06 431.454 437.637C432.219 452.832 434.363 467.925 437.86 482.732Z" fill="#E95200"/>
<path d="M518.565 536.361C495.998 535.703 474.632 534.426 454.242 532.8C447.426 516.585 441.947 499.84 437.859 482.732C459.419 484.861 482.644 486.167 507.881 486.293C510.486 503.169 514.04 519.885 518.526 536.361" fill="#E95200"/>
<path d="M590 482.732C560.37 485.344 533.12 486.409 507.882 486.293C505.447 470.487 503.861 454.562 503.131 438.586C532.245 437.085 561.249 433.915 590 429.093V482.732Z" fill="#E95200"/>
<path d="M53.639 590H0V536.371C17.549 529.482 35.4543 523.539 53.639 518.565C52.981 541.122 52.9132 564.869 53.639 590Z" fill="#E95200"/>
<path d="M160.907 590H107.278C104.665 560.369 103.591 533.119 103.717 507.882C119.52 505.447 135.442 503.861 151.414 503.13C152.92 532.244 156.09 561.248 160.907 590Z" fill="#E95200"/>
<path d="M268.186 590H214.547C207.162 561.427 201.612 532.412 197.932 503.13C213.415 503.789 228.811 505.066 244.448 506.692C249.587 531.493 257.299 559.063 268.186 590Z" fill="#E95200"/>
<path d="M375.463 590H321.824C308.76 561.24 299.073 535.645 292.145 512.585C308.373 514.83 325.046 517.269 342.222 519.707C350.303 540.764 361.238 563.998 375.463 590Z" fill="#E95200"/>
<path d="M482.731 590H429.092C415.167 566.901 404.242 546.018 395.861 526.868C414.46 529.113 433.853 531.155 454.242 532.809C462.506 552.462 472.022 571.565 482.731 590Z" fill="#E95200"/>
<path d="M589.999 590H536.37C529.48 572.452 523.536 554.546 518.564 536.361C541.121 537.029 564.868 537.087 589.999 536.361V590Z" fill="#E95200"/>
</svg>
