<svg width="89" height="89" viewBox="0 0 89 89" fill="none" xmlns="http://www.w3.org/2000/svg">
<path d="M25.9223 67.29V21.0619H33.375V39.7476H55.625V21.0619H63.0777V67.29H55.625V46.0121H33.375V67.29H25.9223ZM44.5 89C38.3794 89 32.6189 87.8479 27.2184 85.5437C21.818 83.2395 17.0655 80.0712 12.9612 76.0388C8.9288 71.9345 5.76052 67.182 3.45631 61.7815C1.1521 56.3811 0 50.6205 0 44.5C0 38.3074 1.1521 32.5469 3.45631 27.2184C5.76052 21.818 8.9288 17.1015 12.9612 13.0692C17.0655 8.96481 21.818 5.76052 27.2184 3.45631C32.6189 1.1521 38.3794 0 44.5 0C50.6926 0 56.4531 1.1521 61.7815 3.45631C67.182 5.76052 71.8985 8.96481 75.9308 13.0692C80.0352 17.1015 83.2395 21.818 85.5437 27.2184C87.8479 32.5469 89 38.3074 89 44.5C89 50.6205 87.8479 56.3811 85.5437 61.7815C83.2395 67.182 80.0352 71.9345 75.9308 76.0388C71.8985 80.0712 67.182 83.2395 61.7815 85.5437C56.4531 87.8479 50.6926 89 44.5 89ZM44.5 82.9514C49.8285 82.9514 54.7969 81.9794 59.4053 80.0352C64.0858 78.019 68.1901 75.2468 71.7184 71.7184C75.2468 68.1901 77.983 64.1218 79.9272 59.5133C81.9434 54.8329 82.9515 49.8285 82.9515 44.5C82.9515 39.1715 81.9434 34.2031 79.9272 29.5947C77.983 24.9142 75.2468 20.8099 71.7184 17.2816C68.1901 13.7532 64.0858 11.017 59.4053 9.07281C54.7969 7.05663 49.8285 6.04854 44.5 6.04854C39.1715 6.04854 34.1671 7.05663 29.4866 9.07281C24.8782 11.017 20.8099 13.7532 17.2816 17.2816C13.7532 20.8099 10.981 24.9142 8.9648 29.5947C7.02063 34.2031 6.04854 39.1715 6.04854 44.5C6.04854 49.8285 7.02063 54.8329 8.9648 59.5133C10.981 64.1218 13.7532 68.1901 17.2816 71.7184C20.8099 75.2468 24.8782 78.019 29.4866 80.0352C34.1671 81.9794 39.1715 82.9514 44.5 82.9514Z" fill="#E95200"/>
</svg>
