<svg width="28" height="28" viewBox="0 0 28 28" fill="none" xmlns="http://www.w3.org/2000/svg">
<path d="M14.0012 14.0008C14.0012 9.39712 11.7158 5.06615 7.6905 1.28224C3.45829 -2.6929 -2.69253 3.46105 1.28262 7.69013C5.06653 11.7154 9.40533 14.0008 14.0012 14.0008Z" fill="#E95200"/>
<path d="M14.0008 14.0007C9.39712 14.0007 5.06615 16.2861 1.28224 20.3114C-2.6929 24.5436 3.46105 30.6929 7.69013 26.7177C11.7154 22.9354 14.0008 18.6029 14.0008 14.0007Z" fill="#E95200"/>
<path d="M14.002 14.0007C18.6041 14.0007 22.9366 11.7153 26.719 7.69001C30.6941 3.4578 24.5417 -2.69301 20.3127 1.28213C16.2873 5.06604 14.002 9.40484 14.002 14.0007Z" fill="#E95200"/>
<path d="M14.002 14.0007C14.002 18.6029 16.2873 22.9354 20.3127 26.7177C24.5449 30.6929 30.6941 24.5405 26.719 20.3114C22.9366 16.2861 18.6041 14.0007 14.002 14.0007Z" fill="#E95200"/>
</svg>
