<svg width="88" height="43" viewBox="0 0 88 43" fill="none" xmlns="http://www.w3.org/2000/svg">
<path d="M44 0C12.5 0 0 21.5 0 21.5C0 21.5 13 43 44 43C75 43 88 21.5 88 21.5C88 21.5 75.5 0 44 0Z" fill="black"/>
<path fill-rule="evenodd" clip-rule="evenodd" d="M44 0C75.5 0 88 21.5 88 21.5C88 21.5 75 43 44 43C13 43 0 21.5 0 21.5C0 21.5 12.5 0 44 0ZM7.49926 21.4531C8.92367 19.7922 11.0099 17.6641 13.8212 15.5245C16.6102 13.402 20.1361 11.2481 24.4855 9.5268C24.148 10.9146 24 12.597 24 14.6364C24 25.8829 32.9543 35 44 35C55.0457 35 64 25.8829 64 14.6364C64 12.5807 63.8162 10.8877 63.4303 9.49356C67.8184 11.2203 71.3718 13.3883 74.1788 15.5245C76.9901 17.6641 79.0763 19.7922 80.5007 21.4531C79.0334 23.1326 76.8864 25.2914 74.0116 27.4601C67.7631 32.1739 58.004 37 44 37C29.996 37 20.2369 32.1739 13.9884 27.4601C11.1136 25.2914 8.96659 23.1326 7.49926 21.4531ZM82.8296 24.5443C82.8327 24.5493 82.8328 24.5496 82.83 24.5449L82.8296 24.5443Z" fill="#AEFF00"/>
<path d="M44.2696 11L42.9409 12.877H44.7309L47.0314 11H44.2696Z" fill="black"/>
<path d="M41.342 15.0723C40.6409 14.3678 41.0202 13.7624 41.3782 13.1438C40.8816 13.6706 40.385 14.1525 39.6048 13.6702C39.8434 13.951 39.823 14.2562 39.7389 14.5672C39.703 14.7005 39.6579 14.8308 39.6039 14.9574C39.2405 15.8053 38.7055 16.5393 38.1532 17.2613C38.1025 17.3275 38.0509 17.3935 38 17.4595L38.057 17.5108C38.1073 17.4455 38.157 17.3797 38.2082 17.3154C38.7307 16.653 39.2605 15.9956 39.9139 15.4641C40.3073 15.1442 40.7077 14.7912 41.342 15.0721" fill="black"/>
<path d="M47.7832 15.6903H47.8805V13.9443H41.5327C41.4959 14.4976 41.6864 15.0698 42.2941 15.68C41.3714 15.2716 40.7032 15.552 40.1046 15.9796V21.9184H47.8805V20.1781H42.3182V18.7211H47.1186V17.0084H42.3184V15.6903H47.7832Z" fill="black"/>
</svg>
