<svg width="36" height="25" viewBox="0 0 36 25" fill="none" xmlns="http://www.w3.org/2000/svg">
<path d="M18 3.15527C5.11364 3.15527 0 11.9507 0 11.9507C0 11.9507 5.31818 20.7462 18 20.7462C30.6818 20.7462 36 11.9507 36 11.9507C36 11.9507 30.8864 3.15527 18 3.15527Z" fill="#FF4826"/>
<path fill-rule="evenodd" clip-rule="evenodd" d="M18 3.15527C30.8864 3.15527 36 11.9507 36 11.9507C36 11.9507 30.6818 20.7462 18 20.7462C5.31818 20.7462 0 11.9507 0 11.9507C0 11.9507 5.11364 3.15527 18 3.15527ZM3.06788 11.9315C3.65059 11.2521 4.50407 10.3815 5.65413 9.50622C6.79509 8.63788 8.23753 7.75674 10.0169 7.05257C9.87879 7.62032 9.81825 8.30859 9.81825 9.14292C9.81825 13.7438 13.4814 17.4735 18.0001 17.4735C22.5188 17.4735 26.1819 13.7438 26.1819 9.14292C26.1819 8.30195 26.1067 7.60937 25.9488 7.03903C27.7439 7.74543 29.1976 8.6323 30.3459 9.50622C31.4959 10.3815 32.3494 11.2521 32.9321 11.9315C32.3318 12.6186 31.4535 13.5017 30.2775 14.389C27.7212 16.3173 23.7289 18.2916 18 18.2916C12.2711 18.2916 8.27875 16.3173 5.72254 14.389C4.54647 13.5017 3.66815 12.6186 3.06788 11.9315Z" fill="white"/>
<rect x="23.1283" width="3.27273" height="26.1818" transform="rotate(30 23.1283 0)" fill="white"/>
</svg>
