<svg width="159" height="163" viewBox="0 0 159 163" fill="none" xmlns="http://www.w3.org/2000/svg">
<path d="M141.729 93.0007L141.951 90.7953L153.45 91.9493L153.845 88.0339C151.759 87.6577 149.983 87.2709 148.518 86.8735C147.069 86.4778 145.901 86.0435 145.012 85.5704C144.123 85.0974 143.49 84.575 143.112 84.0031C142.735 83.4313 142.582 82.7901 142.654 82.0797C142.676 81.865 142.714 81.6519 142.769 81.4404C142.805 81.2438 142.863 81.0828 142.943 80.9573L144.582 81.1218C144.539 81.2176 144.503 81.3225 144.475 81.4365C144.447 81.5504 144.427 81.6653 144.415 81.7809C144.379 82.1443 144.494 82.4897 144.762 82.817C145.03 83.1443 145.459 83.4543 146.048 83.7471C146.636 84.0564 147.383 84.3567 148.291 84.648C149.215 84.9409 150.306 85.2257 151.566 85.5024C152.826 85.779 154.254 86.0557 155.848 86.3326L155.041 94.3368L141.729 93.0007Z" fill="white"/>
<path d="M145.622 99.0482C145.48 99.0015 145.277 98.9262 145.013 98.8223C144.76 98.7394 144.486 98.6407 144.191 98.5265C143.912 98.4174 143.64 98.3108 143.377 98.2069C143.129 98.1082 142.929 98.025 142.776 97.9574L151.186 108.24L150.344 110.795L137.634 106.627L138.273 104.686L145.766 107.144C146.019 107.227 146.351 107.336 146.762 107.471C147.168 107.621 147.566 107.769 147.956 107.915C148.362 108.065 148.665 108.182 148.865 108.265L140.463 98.0379L141.313 95.4589L154.023 99.6276L153.376 101.591L145.622 99.0482Z" fill="white"/>
<path d="M142.642 115.377C141.975 114.97 141.365 114.852 140.813 115.021C140.266 115.213 139.776 115.663 139.342 116.372C138.908 117.08 138.62 117.79 138.478 118.501C138.349 119.22 138.283 119.997 138.279 120.832L143.179 123.817L142.034 125.688L130.616 118.73L131.761 116.859L136.852 119.962C136.831 119.073 136.89 118.244 137.03 117.473C137.176 116.725 137.513 115.919 138.042 115.055C138.754 113.893 139.614 113.172 140.624 112.892C141.625 112.627 142.637 112.806 143.659 113.429L147.941 116.038L146.796 117.908L142.642 115.377Z" fill="white"/>
<path d="M136.875 132.01L132.897 128.126L127.817 133.306L131.795 137.191L130.259 138.757L120.696 129.421L122.232 127.855L126.496 132.017L131.576 126.837L127.312 122.674L128.848 121.108L138.412 130.444L136.875 132.01Z" fill="white"/>
<path d="M118.618 131.379L125.507 142.823L123.624 143.951L120.796 139.254L117.822 141.037C116.824 141.636 115.93 142.006 115.143 142.149C114.355 142.292 113.659 142.215 113.054 141.919C112.457 141.638 111.94 141.134 111.503 140.408C111.075 139.697 110.859 138.983 110.856 138.269C110.838 137.562 111.072 136.87 111.557 136.192C112.027 135.523 112.79 134.872 113.846 134.239L118.618 131.379ZM114.93 135.652C114.117 136.14 113.535 136.673 113.184 137.251C112.842 137.843 112.881 138.488 113.3 139.186C113.72 139.883 114.239 140.212 114.855 140.172C115.48 140.146 116.235 139.868 117.119 139.337L119.858 137.696L117.647 134.024L114.93 135.652ZM107.491 138.048L114.38 149.492L112.497 150.62L105.608 139.177L107.491 138.048Z" fill="white"/>
<path d="M98.0574 161.179C97.8885 160.363 97.8926 159.635 98.0698 158.996C98.231 158.361 98.5916 157.815 99.1515 157.358C99.7114 156.901 100.503 156.524 101.525 156.227C102.564 155.925 103.442 155.817 104.16 155.902C104.862 155.992 105.434 156.258 105.875 156.7C106.321 157.159 106.695 157.785 106.996 158.579L105.031 159.151C104.7 158.313 104.306 157.796 103.85 157.6C103.383 157.425 102.734 157.458 101.903 157.7C101.168 157.913 100.637 158.232 100.31 158.656C99.9722 159.1 99.8842 159.748 100.046 160.6L98.0574 161.179ZM102.635 145.605C102.593 145.462 102.54 145.252 102.477 144.977C102.403 144.722 102.329 144.44 102.257 144.133C102.189 143.841 102.123 143.558 102.06 143.282C102.002 143.022 101.957 142.811 101.926 142.646L98.1844 155.383L95.5962 156.135L91.8526 143.319L93.8177 142.747L96.0248 150.303C96.0993 150.558 96.197 150.893 96.3181 151.308C96.4232 151.727 96.5259 152.138 96.6264 152.541C96.7315 152.96 96.8063 153.276 96.8508 153.487L100.552 140.789L103.164 140.03L106.908 152.846L104.919 153.424L102.635 145.605Z" fill="white"/>
<path d="M83.2918 152.377C83.2242 154.319 82.9754 155.963 82.5455 157.311C82.0984 158.674 81.4532 159.748 80.6099 160.533C79.7495 161.334 78.6657 161.853 77.3587 162.09C76.2695 162.285 75.2062 162.456 74.1687 162.603C73.1312 162.749 72.1608 162.882 71.2575 163L70.9501 161.07C71.3848 161.019 71.87 160.953 72.4057 160.872C72.9408 160.807 73.4845 160.735 74.0368 160.654C74.5885 160.59 75.1239 160.517 75.6429 160.436C76.1447 160.37 76.5883 160.302 76.9738 160.233C77.5266 160.135 78.0242 159.953 78.4664 159.686C78.9081 159.436 79.295 159.084 79.6272 158.63C79.9427 158.176 80.2038 157.612 80.4105 156.938C80.6171 156.264 80.7532 155.463 80.8189 154.534L80.6692 154.529C80.4254 154.836 80.0981 155.149 79.6874 155.467C79.26 155.785 78.7596 156.05 78.186 156.262C77.5959 156.474 76.9349 156.568 76.2031 156.543C75.0389 156.502 74.0832 156.211 73.3361 155.671C72.5718 155.146 72.014 154.429 71.6627 153.519C71.2947 152.609 71.1315 151.557 71.1732 150.362C71.2246 148.885 71.5254 147.658 72.0757 146.68C72.6259 145.703 73.3671 144.981 74.2991 144.514C75.2306 144.065 76.3034 143.861 77.5175 143.903C78.4322 143.935 79.2577 144.138 79.994 144.513C80.7297 144.904 81.3515 145.457 81.8594 146.172C82.3673 146.888 82.7448 147.765 82.9917 148.803C83.2386 149.842 83.3386 151.033 83.2918 152.377ZM77.2796 145.714C76.5478 145.689 75.9106 145.816 75.368 146.097C74.8088 146.376 74.3676 146.851 74.0446 147.521C73.7215 148.191 73.5403 149.09 73.501 150.219C73.4536 151.579 73.6741 152.659 74.1626 153.456C74.6338 154.27 75.4514 154.697 76.6156 154.738C77.3474 154.763 78.0184 154.62 78.6287 154.309C79.2384 154.014 79.7501 153.667 80.1637 153.266C80.5773 152.865 80.8722 152.526 81.0483 152.25C81.0766 151.437 81.0459 150.646 80.956 149.879C80.8662 149.112 80.6906 148.416 80.4292 147.792C80.1507 147.185 79.76 146.689 79.2571 146.306C78.7371 145.939 78.0779 145.742 77.2796 145.714Z" fill="white"/>
<path d="M59.9064 155.178C58.3115 154.766 57.1746 153.881 56.4956 152.522C55.8006 151.159 55.7428 149.36 56.3224 147.126C56.7018 145.663 57.2484 144.484 57.9622 143.588C58.6557 142.703 59.4719 142.108 60.4109 141.802C61.3296 141.507 62.3286 141.499 63.408 141.778C64.0685 141.949 64.6336 142.189 65.1033 142.499C65.573 142.809 65.9576 143.148 66.2573 143.517C66.5367 143.898 66.7615 144.29 66.9317 144.695L67.0767 144.732C67.1153 144.45 67.1728 144.096 67.249 143.67C67.3251 143.244 67.4028 142.878 67.4821 142.573L68.858 137.268L70.9846 137.817L66.1313 156.528L64.3913 156.079L64.5579 154.244L64.4612 154.219C64.1076 154.522 63.7139 154.78 63.2803 154.994C62.8305 155.204 62.333 155.333 61.7877 155.38C61.2263 155.424 60.5992 155.357 59.9064 155.178ZM60.7559 153.493C61.6259 153.718 62.3705 153.73 62.9897 153.53C63.6047 153.346 64.1185 152.955 64.5312 152.359C64.9438 151.762 65.2895 150.959 65.5683 149.951L65.6746 149.541C65.9498 148.48 66.0705 147.551 66.0367 146.753C66.003 145.955 65.7703 145.295 65.3387 144.772C64.8911 144.245 64.2 143.861 63.2656 143.619C62.4762 143.415 61.7755 143.466 61.1635 143.771C60.5353 144.072 60.0046 144.561 59.5711 145.238C59.1174 145.927 58.7654 146.753 58.5152 147.718C58.1316 149.197 58.1152 150.453 58.4658 151.487C58.8004 152.517 59.5637 153.185 60.7559 153.493Z" fill="white"/>
<path d="M51.3193 137.126C52.9803 137.969 54.0656 139.191 54.5751 140.791C55.0621 142.399 54.8528 144.09 53.9469 145.866L53.8563 146.044C52.9656 147.79 51.7329 148.962 50.1583 149.559C48.5688 150.149 46.9732 150.038 45.3715 149.224C43.8884 148.471 42.8954 147.361 42.3924 145.895C41.867 144.436 42.0987 142.737 43.0876 140.798L43.3933 140.199L52.1583 144.65C52.7932 143.296 52.9804 142.106 52.7198 141.079C52.4369 140.06 51.7022 139.249 50.5157 138.646C48.6915 137.72 47.3173 137.87 46.3931 139.096L44.5467 138.158C45.3207 137.116 46.3112 136.511 47.5181 136.341C48.7174 136.186 49.9845 136.448 51.3193 137.126ZM51.3329 146.104L44.5256 142.647C43.5489 144.964 44.0913 146.646 46.1528 147.693C47.0871 148.167 48.013 148.256 48.9306 147.958C49.8406 147.675 50.6414 147.057 51.3329 146.104ZM45.2774 151.44L42.2337 154.003L39.9201 152.828L43.8981 150.74L45.2774 151.44Z" fill="white"/>
<path d="M34.4921 142.728L38.0236 138.435L32.4085 133.837L28.8771 138.13L27.179 136.74L35.6671 126.421L37.3651 127.811L33.5803 132.412L39.1954 137.01L42.9802 132.409L44.6782 133.799L36.1902 144.119L34.4921 142.728Z" fill="white"/>
<path d="M16.9185 124.614L26.0168 117.543L24.8204 116.01L29.9407 112.031L31.2445 113.702L27.5815 116.548L33.3029 123.877L36.9658 121.031L38.2543 122.681L33.134 126.66L32.4745 125.815C31.1638 125.866 29.8628 126.077 28.5713 126.449C27.2566 126.819 25.9842 127.323 24.7542 127.963C23.5009 128.601 22.3309 129.331 21.2441 130.155L16.9185 124.614ZM21.4065 127.566C22.3402 126.925 23.3731 126.343 24.5054 125.821C25.6245 125.309 26.7553 124.893 27.8979 124.573C29.0303 124.241 30.0905 124.059 31.0786 124.027L27.3206 119.213L19.5812 125.228L21.4065 127.566Z" fill="white"/>
<path d="M24.7236 103.423L0.544212 103.086L-0.000366211 101.273L24.179 101.609L24.7236 103.423Z" fill="white"/>
<path d="M17.6312 71.8929L17.4685 74.1036L5.94216 73.2592L5.65335 77.1837C7.74894 77.5037 9.53444 77.8427 11.0099 78.2005C12.4687 78.5571 13.6488 78.9599 14.5502 79.4088C15.4516 79.8578 16.0985 80.363 16.491 80.9245C16.8836 81.486 17.0536 82.1228 17.0012 82.8348C16.9854 83.0501 16.9529 83.2642 16.9039 83.477C16.8727 83.6745 16.819 83.8371 16.7429 83.9647L15.0998 83.8443C15.1403 83.7474 15.1731 83.6416 15.1982 83.5269C15.2234 83.4122 15.2402 83.2969 15.2487 83.1809C15.2755 82.8166 15.1505 82.4745 14.8737 82.1546C14.5969 81.8346 14.16 81.5362 13.563 81.2594C12.9672 80.966 12.2119 80.6859 11.2971 80.4191C10.3657 80.1511 9.26655 79.8958 7.99957 79.6531C6.7326 79.4105 5.29844 79.1722 3.69709 78.9384L4.28751 70.9154L17.6312 71.8929Z" fill="white"/>
<path d="M13.5557 65.9905C13.6991 66.0334 13.904 66.1033 14.1702 66.2002C14.4252 66.2765 14.7018 66.3678 14.9999 66.4743C15.2821 66.576 15.5563 66.6753 15.8225 66.7722C16.0728 66.8644 16.2752 66.9423 16.4299 67.0058L7.75012 56.9486L8.52399 54.372L21.3405 58.2041L20.753 60.1604L13.1969 57.9012C12.9419 57.8249 12.6071 57.7248 12.1927 57.6009C11.783 57.4611 11.3813 57.3236 10.9875 57.1886C10.5778 57.0488 10.2717 56.9399 10.0693 56.862L18.7395 66.8644L17.9584 69.4649L5.14187 65.6328L5.73661 63.6526L13.5557 65.9905Z" fill="white"/>
<path d="M15.9432 49.8396C16.6224 50.2265 17.2355 50.3273 17.7824 50.1418C18.3231 49.9336 18.7998 49.469 19.2124 48.7481C19.625 48.0272 19.8921 47.3094 20.0137 46.5947C20.1208 45.8718 20.1639 45.0933 20.143 44.2592L15.1574 41.4187L16.2466 39.5154L27.8654 46.1352L26.7761 48.0385L21.5954 45.0867C21.6431 45.9743 21.6083 46.8053 21.4908 47.5797C21.3672 48.3315 21.0537 49.1471 20.5503 50.0266C19.8736 51.209 19.0348 51.9547 18.0338 52.264C17.0411 52.5588 16.0244 52.4097 14.984 51.8169L10.6269 49.3345L11.7162 47.4312L15.9432 49.8396Z" fill="white"/>
<path d="M21.4 32.7669L25.4766 36.5489L30.423 31.2413L26.3465 27.4593L27.8423 25.8542L37.6406 34.9446L36.1447 36.5497L31.7757 32.4963L26.8293 37.804L31.1983 41.8573L29.7025 43.4624L19.9042 34.372L21.4 32.7669Z" fill="white"/>
<path d="M39.6647 32.8968L32.4822 21.6338L34.3356 20.4572L37.2836 25.0801L40.211 23.2217C41.1938 22.5978 42.077 22.2043 42.8607 22.0414C43.6444 21.8784 44.3425 21.937 44.9552 22.2173C45.5589 22.4834 46.0885 22.9738 46.5441 23.6882C46.9908 24.3886 47.2249 25.0961 47.2466 25.8105C47.2823 26.516 47.0665 27.2138 46.5993 27.904C46.1462 28.5853 45.4001 29.2557 44.3612 29.9153L39.6647 32.8968ZM43.2413 28.5303C44.0416 28.0223 44.6096 27.4747 44.9453 26.8877C45.2721 26.2866 45.2166 25.6429 44.7789 24.9565C44.3411 24.27 43.8146 23.9548 43.1995 24.0108C42.5753 24.0528 41.828 24.3501 40.9575 24.9027L38.2618 26.6141L40.5666 30.2283L43.2413 28.5303ZM50.6161 25.9444L43.4337 14.6814L45.287 13.5049L52.4694 24.7679L50.6161 25.9444Z" fill="white"/>
<path d="M59.3731 2.56873C59.5636 3.3796 59.5787 4.10704 59.4185 4.75104C59.2742 5.38997 58.9282 5.94516 58.3806 6.4166C57.833 6.88804 57.0521 7.28587 56.0378 7.61009C55.0077 7.93936 54.1325 8.07092 53.4123 8.00474C52.7079 7.9335 52.1293 7.68257 51.6765 7.25195C51.2186 6.80552 50.8285 6.18923 50.5062 5.40307L52.4555 4.77997C52.8089 5.6085 53.2161 6.11472 53.677 6.29864C54.1488 6.46168 54.7967 6.41149 55.6208 6.14807C56.3498 5.91504 56.8721 5.58245 57.1877 5.15031C57.514 4.69729 57.5848 4.04699 57.4 3.19943L59.3731 2.56873ZM55.2103 18.2573C55.256 18.3996 55.3141 18.6077 55.3845 18.8815C55.4658 19.1345 55.5467 19.4138 55.6273 19.7193C55.7029 20.009 55.7759 20.2908 55.8463 20.5646C55.9117 20.8227 55.9619 21.0333 55.9968 21.1965L59.3998 8.36612L61.9671 7.54545L66.0493 20.2585L64.1 20.8816L61.6934 13.3866C61.6121 13.1336 61.5055 12.8015 61.3735 12.3904C61.2573 11.9742 61.1437 11.566 61.0326 11.1656C60.9165 10.7494 60.8333 10.436 60.7831 10.2254L57.4201 23.0168L54.829 23.8451L50.7468 11.1321L52.7199 10.5014L55.2103 18.2573Z" fill="white"/>
<path d="M74.0705 10.9432C74.0855 9.00057 74.2897 7.35001 74.6829 5.99147C75.093 4.61647 75.7088 3.52532 76.5305 2.71804C77.369 1.89428 78.4383 1.34627 79.7385 1.07401C80.822 0.849891 81.8803 0.650488 82.9134 0.475797C83.9465 0.301108 84.913 0.142509 85.8128 0L86.1723 1.92058C85.7392 1.98366 85.2559 2.06296 84.7227 2.15848C84.1895 2.23739 83.648 2.32454 83.0981 2.41993C82.5483 2.49872 82.0151 2.58594 81.4984 2.68159C80.9986 2.76076 80.5569 2.84038 80.1735 2.92044C79.6235 3.03244 79.1311 3.2279 78.6962 3.50682C78.2615 3.76915 77.8842 4.13154 77.5645 4.594C77.2613 5.05658 77.0156 5.62754 76.8273 6.30687C76.639 6.9862 76.5246 7.79063 76.4841 8.72017L76.6339 8.72132C76.8693 8.40765 77.188 8.08632 77.5899 7.75733C78.0085 7.42846 78.5016 7.14999 79.0692 6.9219C79.6534 6.69394 80.3116 6.58278 81.0438 6.58842C82.2087 6.59739 83.1719 6.86218 83.9334 7.38278C84.7116 7.88691 85.2887 8.58874 85.6645 9.48827C86.0569 10.3879 86.2485 11.4355 86.2392 12.6309C86.2278 14.1086 85.9603 15.3436 85.4367 16.3358C84.9132 17.3281 84.1918 18.0697 83.2727 18.5608C82.3537 19.0352 81.2869 19.2677 80.0721 19.2584C79.1568 19.2513 78.3261 19.0706 77.58 18.7162C76.834 18.3451 76.1974 17.8089 75.6703 17.1074C75.1432 16.406 74.7422 15.5395 74.4673 14.5079C74.1923 13.4763 74.0601 12.288 74.0705 10.9432ZM80.2609 17.4417C80.9931 17.4473 81.6266 17.3027 82.1614 17.008C82.7129 16.7134 83.141 16.2268 83.4458 15.5484C83.7506 14.87 83.9074 13.9662 83.9161 12.8372C83.9267 11.4757 83.677 10.4028 83.1672 9.61847C82.6741 8.81766 81.8452 8.41277 80.6803 8.4038C79.9481 8.39816 79.2812 8.55907 78.6795 8.88652C78.078 9.19737 77.576 9.5588 77.1734 9.97081C76.7708 10.3828 76.4852 10.7293 76.3166 11.0103C76.3103 11.8239 76.3624 12.613 76.473 13.3776C76.5836 14.1423 76.778 14.8328 77.0561 15.4494C77.351 16.0494 77.755 16.534 78.268 16.9033C78.7978 17.256 79.4621 17.4355 80.2609 17.4417Z" fill="white"/>
<path d="M97.5349 7.47062C99.1403 7.83997 100.3 8.69476 101.015 10.035C101.747 11.3789 101.852 13.1754 101.332 15.4243C100.992 16.8966 100.477 18.0902 99.7877 19.005C99.118 19.9074 98.318 20.5242 97.3875 20.8554C96.477 21.1742 95.4785 21.2086 94.3921 20.9586C93.7272 20.8056 93.1559 20.5805 92.6781 20.2831C92.2004 19.9858 91.8068 19.6566 91.4974 19.2958C91.2079 18.9225 90.9728 18.5361 90.7918 18.1366L90.6459 18.1031C90.6148 18.3856 90.5668 18.7409 90.502 19.169C90.4372 19.5971 90.3693 19.9649 90.2982 20.2723L89.0643 25.6115L86.9238 25.119L91.2763 6.28629L93.0276 6.68921L92.91 8.528L93.0073 8.55039C93.3528 8.23796 93.7394 7.96908 94.1672 7.74375C94.6112 7.52215 95.1051 7.38019 95.6489 7.31787C96.209 7.25928 96.8376 7.3102 97.5349 7.47062ZM96.7307 9.17699C95.855 8.97553 95.1104 8.98312 94.4967 9.19977C93.8868 9.40024 93.3836 9.80417 92.987 10.4116C92.5905 11.019 92.2663 11.8304 92.0146 12.846L91.9192 13.2586C91.6724 14.3264 91.5765 15.2586 91.6315 16.055C91.6866 16.8515 91.9368 17.5055 92.3821 18.0169C92.8437 18.532 93.5448 18.8978 94.4853 19.1142C95.2799 19.297 95.979 19.2278 96.5826 18.9066C97.2025 18.5892 97.7201 18.0863 98.1353 17.398C98.5705 16.6973 98.9003 15.8615 99.1246 14.8908C99.4686 13.4023 99.4516 12.1459 99.0735 11.1218C98.7116 10.1013 97.9306 9.45307 96.7307 9.17699Z" fill="white"/>
<path d="M106.527 25.193C104.841 24.399 103.72 23.2098 103.163 21.6254C102.629 20.0331 102.788 18.3361 103.64 16.5344L103.725 16.3542C104.564 14.5825 105.761 13.3746 107.317 12.7306C108.888 12.0937 110.487 12.158 112.112 12.9237C113.617 13.6326 114.642 14.7125 115.189 16.1634C115.757 17.6064 115.576 19.3114 114.645 21.2782L114.358 21.8863L105.464 17.6966C104.87 19.0692 104.718 20.2647 105.009 21.2831C105.322 22.2936 106.081 23.0825 107.285 23.6496C109.136 24.5216 110.505 24.3311 111.392 23.0782L113.266 23.9608C112.523 25.0248 111.551 25.6594 110.349 25.8646C109.155 26.0549 107.881 25.831 106.527 25.193ZM106.246 16.2196L113.153 19.4735C114.06 17.1283 113.468 15.4631 111.377 14.4777C110.428 14.0311 109.5 13.9702 108.592 14.2951C107.691 14.6051 106.909 15.2465 106.246 16.2196ZM112.14 10.706L115.106 8.05459L117.454 9.1605L113.54 11.3653L112.14 10.706Z" fill="white"/>
<path d="M123.466 19.255L120.045 23.6367L125.776 28.0902L129.197 23.7085L130.93 25.0553L122.708 35.5871L120.975 34.2403L124.641 29.5442L118.91 25.0907L115.244 29.7868L113.511 28.44L121.733 17.9082L123.466 19.255Z" fill="white"/>
<path d="M141.525 36.907L132.611 44.2067L133.846 45.7084L128.829 49.8165L127.483 48.18L131.072 45.2412L125.165 38.0601L121.576 40.9989L120.246 39.3817L125.263 35.2736L125.944 36.1015C127.253 36.0177 128.548 35.7734 129.83 35.3684C131.134 34.9658 132.394 34.4288 133.607 33.7576C134.843 33.0887 135.994 32.3288 137.06 31.4778L141.525 36.907ZM136.964 34.0697C136.047 34.7347 135.029 35.3425 133.91 35.8933C132.805 36.4335 131.685 36.8779 130.551 37.2266C129.427 37.5881 128.372 37.7971 127.385 37.8535L131.265 42.5703L138.848 36.3608L136.964 34.0697Z" fill="white"/>
<path d="M134.222 58.0881L158.4 57.6959L159 59.4918L134.821 59.884L134.222 58.0881Z" fill="white"/>
</svg>
