<svg width="572" height="865" viewBox="0 0 572 865" fill="none" xmlns="http://www.w3.org/2000/svg">
<path fill-rule="evenodd" clip-rule="evenodd" d="M73.6338 566.664H417.223L442.098 325.622L279.656 379.758L123.308 181.582L121.876 183.39L122.154 186.261L123.305 184.808L278.956 382.1L439.79 328.499L415.419 564.664H74.9442L73.6338 566.664ZM70.7639 677.234H516.992L569.692 166.548L318.379 250.303L123.451 3.22571L73.767 65.9941C73.2889 65.5234 72.8099 65.0538 72.3308 64.5861L123.454 0L319.079 247.961L572 163.671L518.797 679.234H71.7205L70.7639 677.234ZM0.970581 865H523.708V750.43H107.5V752.43H521.708V863H5.20588L0.970581 865Z" fill="url(#paint0_linear_423_343)"/>
<defs>
<linearGradient id="paint0_linear_423_343" x1="256.5" y1="556" x2="-68.5" y2="554" gradientUnits="userSpaceOnUse">
<stop stop-color="#FF4826"/>
<stop offset="1" stop-color="#FF4826" stop-opacity="0"/>
</linearGradient>
</defs>
</svg>
