<svg width="46" height="23" viewBox="0 0 46 23" fill="none" xmlns="http://www.w3.org/2000/svg">
<path d="M23 0C6.53409 0 0 11.2386 0 11.2386C0 11.2386 6.79545 22.4773 23 22.4773C39.2045 22.4773 46 11.2386 46 11.2386C46 11.2386 39.4659 0 23 0Z" fill="white"/>
<path fill-rule="evenodd" clip-rule="evenodd" d="M23 0C39.4659 0 46 11.2386 46 11.2386C46 11.2386 39.2045 22.4773 23 22.4773C6.79545 22.4773 0 11.2386 0 11.2386C0 11.2386 6.53409 0 23 0ZM3.92007 11.2141C4.66465 10.3459 5.7552 9.2335 7.22472 8.1151C8.68259 7.00557 10.5257 5.87969 12.7992 4.97992C12.6228 5.7054 12.5454 6.58489 12.5454 7.65101C12.5454 13.5299 17.2261 18.2956 23 18.2956C28.7738 18.2956 33.4545 13.5299 33.4545 7.65101C33.4545 6.57634 33.3584 5.69131 33.1566 4.9625C35.4505 5.86514 37.308 6.9984 38.7753 8.1151C40.2448 9.2335 41.3354 10.3459 42.0799 11.2141C41.3129 12.092 40.1906 13.2205 38.6879 14.3541C35.4216 16.8182 30.3203 19.3409 23 19.3409C15.6797 19.3409 10.5784 16.8182 7.31213 14.3541C5.80938 13.2205 4.68708 12.092 3.92007 11.2141ZM43.2973 12.83C43.2989 12.8326 43.299 12.8327 43.2975 12.8303L43.2973 12.83Z" fill="#FF4826"/>
<g clip-path="url(#clip0_153_627)">
<path d="M23.1409 5.75L22.4464 6.73117H23.3821L24.5846 5.75H23.1409Z" fill="white"/>
<path d="M21.6106 7.87872C21.2441 7.51048 21.4424 7.19398 21.6295 6.87064C21.3699 7.14602 21.1104 7.39792 20.7025 7.14578C20.8272 7.29259 20.8166 7.45212 20.7726 7.61471C20.7539 7.68434 20.7303 7.7525 20.702 7.81865C20.5121 8.26189 20.2324 8.64555 19.9437 9.02297C19.9172 9.05759 19.8903 9.09209 19.8636 9.12659L19.8935 9.15339C19.9197 9.11925 19.9457 9.08488 19.9725 9.05123C20.2456 8.70501 20.5225 8.36135 20.8641 8.08352C21.0697 7.91628 21.2791 7.73179 21.6106 7.8786" fill="white"/>
<path d="M24.9776 8.20171H25.0284V7.28905H21.7103C21.691 7.57826 21.7906 7.87738 22.1083 8.19632C21.6259 7.98284 21.2767 8.1294 20.9637 8.35292V11.4573H25.0284V10.5476H22.1209V9.78602H24.6302V8.89073H22.121V8.20171H24.9776Z" fill="white"/>
</g>
<defs>
<clipPath id="clip0_153_627">
<rect width="5.22727" height="5.75" fill="white" transform="translate(19.8636 5.75)"/>
</clipPath>
</defs>
</svg>
