<svg width="120" height="129" viewBox="0 0 120 129" fill="none" xmlns="http://www.w3.org/2000/svg">
<path d="M4.87805 45.2977V57.1145V58.0992H11.7073V63.0229H18.5366V68.9313H29.2683V63.0229H36.0976V57.1145H44.8781V51.2061H53.6585V45.2977H59.5122V4.92366H66.3415V0H115.122V4.92366H120V31.5114H90.7317V38.4046H109.268V45.2977H83.9024V57.1145H97.561V68.9313H90.7317V63.0229H83.9024V84.687H78.0488V93.5496H71.2195V99.458H66.3415V124.076H73.1707V129H59.5122V111.275H55.6098V105.366H42.9268V112.26H48.7805V118.168H36.0976V112.26H29.2683V105.366H24.3902V99.458H18.5366V93.5496H11.7073V87.6412H10.7317H4.87805V79.7634H0V45.2977H4.87805Z" fill="#FF4826"/>
<path d="M82 8C72.6932 8 69 14.3523 69 14.3523C69 14.3523 72.8409 20.7045 82 20.7045C91.1591 20.7045 95 14.3523 95 14.3523C95 14.3523 91.3068 8 82 8Z" fill="white"/>
<path fill-rule="evenodd" clip-rule="evenodd" d="M82 8C91.3068 8 95 14.3523 95 14.3523C95 14.3523 91.1591 20.7045 82 20.7045C72.8409 20.7045 69 14.3523 69 14.3523C69 14.3523 72.6932 8 82 8ZM71.2157 14.3384C71.6365 13.8477 72.2529 13.2189 73.0835 12.5868C73.9075 11.9597 74.9493 11.3233 76.2343 10.8147C76.1346 11.2248 76.0909 11.7219 76.0909 12.3245C76.0909 15.6473 78.7365 18.341 82 18.341C85.2635 18.341 87.909 15.6473 87.909 12.3245C87.909 11.717 87.8547 11.2168 87.7407 10.8049C89.0372 11.3151 90.0871 11.9556 90.9165 12.5868C91.7471 13.2189 92.3635 13.8477 92.7843 14.3384C92.3508 14.8346 91.7164 15.4725 90.8671 16.1132C89.0209 17.5059 86.1375 18.9318 82 18.9318C77.8625 18.9318 74.9791 17.5059 73.1329 16.1132C72.2836 15.4725 71.6492 14.8346 71.2157 14.3384Z" fill="#FF4826"/>
<g clip-path="url(#clip0_187_222)">
<path d="M82.0797 11.25L81.6871 11.8046H82.216L82.8957 11.25H82.0797Z" fill="white"/>
<path d="M81.2147 12.4532C81.0076 12.245 81.1196 12.0662 81.2254 11.8834C81.0787 12.039 80.932 12.1814 80.7014 12.0389C80.7719 12.1219 80.7659 12.2121 80.7411 12.304C80.7305 12.3433 80.7171 12.3818 80.7012 12.4192C80.5938 12.6698 80.4357 12.8866 80.2726 13.0999C80.2576 13.1195 80.2423 13.139 80.2273 13.1585L80.2441 13.1736C80.259 13.1543 80.2737 13.1349 80.2888 13.1159C80.4432 12.9202 80.5997 12.726 80.7928 12.5689C80.909 12.4744 81.0273 12.3701 81.2147 12.4531" fill="white"/>
<path d="M83.1178 12.6357H83.1465V12.1199H81.2711C81.2602 12.2833 81.3165 12.4524 81.496 12.6327C81.2234 12.512 81.026 12.5949 80.8491 12.7212V14.4758H83.1465V13.9617H81.5031V13.5312H82.9215V13.0252H81.5032V12.6357H83.1178Z" fill="white"/>
</g>
<defs>
<clipPath id="clip0_187_222">
<rect width="2.95455" height="3.25" fill="white" transform="translate(80.2273 11.25)"/>
</clipPath>
</defs>
</svg>
