<svg width="706" height="337" viewBox="0 0 706 337" fill="none" xmlns="http://www.w3.org/2000/svg">
<path d="M703.457 99.6833C705.162 120.358 697.185 142.059 681.047 163.672C664.903 185.294 640.657 206.734 610.045 226.777C548.826 266.86 462.412 301.186 365.323 320.178C268.234 339.169 178.991 339.204 113.208 323.964C80.3142 316.343 53.3563 304.919 34.2146 290.2C15.0797 275.486 3.83221 257.546 2.12665 236.871C0.421081 216.197 8.39833 194.496 24.5363 172.882C40.6801 151.261 64.9268 129.821 95.5387 109.778C156.757 69.6944 243.171 35.3686 340.261 16.3769C437.35 -2.61486 526.592 -2.64932 592.375 12.591C625.269 20.2117 652.227 31.6356 671.369 46.3548C690.504 61.0687 701.751 79.0089 703.457 99.6833Z" stroke="#FF4826" stroke-width="3"/>
</svg>
