<svg width="316" height="340" viewBox="0 0 316 340" fill="none" xmlns="http://www.w3.org/2000/svg">
<path d="M198.118 0L156.133 58.017H212.697L285.391 0H198.118Z" fill="#AEFF00"/>
<path d="M105.609 125.872C83.4527 104.098 95.4392 85.3832 106.751 66.2637C91.0583 82.5475 75.366 97.4424 50.7108 82.533C58.2517 91.2139 57.6054 100.647 54.9481 110.261C53.8148 114.379 52.3891 118.409 50.6821 122.32C39.1984 148.529 22.2924 171.215 4.84055 193.532C3.239 195.579 1.60873 197.619 0 199.659L1.80264 201.244C3.38982 199.225 4.96264 197.193 6.57855 195.203C23.0895 174.731 39.8304 154.41 60.4781 137.982C72.9098 128.093 85.5642 117.184 105.609 125.865" fill="#AEFF00"/>
<path d="M309.149 144.97H312.222V91.0039H111.634C110.471 108.105 116.489 125.792 135.693 144.652C106.535 132.028 85.4206 140.695 66.5037 153.911V337.475H312.222V283.683H136.455V238.651H288.149V185.712H136.462V144.97H309.149Z" fill="#AEFF00"/>
</svg>
