<svg width="55" height="46" viewBox="0 0 55 46" fill="none" xmlns="http://www.w3.org/2000/svg">
<mask id="path-1-outside-1_4_357" maskUnits="userSpaceOnUse" x="0" y="0" width="55" height="46" fill="black">
<rect fill="white" width="55" height="46"/>
<path fill-rule="evenodd" clip-rule="evenodd" d="M49.3845 22L30.7987 3.41421L32.2129 2L52.0119 21.799L53.4261 23.2132L52.0119 24.6274L32.2129 44.4264L30.7987 43.0122L49.8109 24H1V22H49.3845Z"/>
</mask>
<path fill-rule="evenodd" clip-rule="evenodd" d="M49.3845 22L30.7987 3.41421L32.2129 2L52.0119 21.799L53.4261 23.2132L52.0119 24.6274L32.2129 44.4264L30.7987 43.0122L49.8109 24H1V22H49.3845Z" fill="white"/>
<path d="M30.7987 3.41421L30.0916 2.70711L29.3845 3.41421L30.0916 4.12132L30.7987 3.41421ZM49.3845 22V23H51.7987L50.0916 21.2929L49.3845 22ZM32.2129 2L32.92 1.29289L32.2129 0.585786L31.5058 1.29289L32.2129 2ZM52.0119 21.799L51.3048 22.5061L52.0119 21.799ZM53.4261 23.2132L54.1332 23.9203L54.8403 23.2132L54.1332 22.5061L53.4261 23.2132ZM52.0119 24.6274L51.3048 23.9203L52.0119 24.6274ZM32.2129 44.4264L31.5058 45.1335L32.2129 45.8406L32.92 45.1335L32.2129 44.4264ZM30.7987 43.0122L30.0916 42.3051L29.3845 43.0122L30.0916 43.7193L30.7987 43.0122ZM49.8109 24L50.518 24.7071L52.2251 23H49.8109V24ZM1 24H0V25H1V24ZM1 22V21H0V22H1ZM30.0916 4.12132L48.6774 22.7071L50.0916 21.2929L31.5058 2.70711L30.0916 4.12132ZM31.5058 1.29289L30.0916 2.70711L31.5058 4.12132L32.92 2.70711L31.5058 1.29289ZM52.719 21.0919L32.92 1.29289L31.5058 2.70711L51.3048 22.5061L52.719 21.0919ZM54.1332 22.5061L52.719 21.0919L51.3048 22.5061L52.719 23.9203L54.1332 22.5061ZM52.719 25.3345L54.1332 23.9203L52.719 22.5061L51.3048 23.9203L52.719 25.3345ZM32.92 45.1335L52.719 25.3345L51.3048 23.9203L31.5058 43.7193L32.92 45.1335ZM30.0916 43.7193L31.5058 45.1335L32.92 43.7193L31.5058 42.3051L30.0916 43.7193ZM49.1038 23.2929L30.0916 42.3051L31.5058 43.7193L50.518 24.7071L49.1038 23.2929ZM49.8109 23H1V25H49.8109V23ZM2 24V22H0V24H2ZM1 23H49.3845V21H1V23Z" fill="white" mask="url(#path-1-outside-1_4_357)"/>
</svg>
